# xmcd
#
# Track frame offsets:
#	150
#	10907
#	22765
#	32485
#	44717
#	56462
#	68620
#	81325
#	91982
#	102795
#	114010
#	125872
#
# Disc length: 1812 seconds
# Revision: 5
# Processed by: cddbd v1.5.2PL0 Copyright (c) Steve Scherf et al.
# Submitted via: dBpowerAMP V12.0
#
DISCID=8d07120c
DTITLE=Etta James - Tell Mama
DYEAR=1968
DGENRE=Soul
TTITLE0=Tell Mama
TTITLE1=I'd Rather go Blind
TTITLE2=Watch Dog
TTITLE3=The Love of my Man
TTITLE4=I'm Gonna Take What He's Got
TTITLE5=The Same Rope
TTITLE6=Security
TTITLE7=Steal Away
TTITLE8=My Mother-in-Law
TTITLE9=Don't Lose Your Good Thing
TTITLE10=It Hurts me so Much
TTITLE11=Just a Little Bit
EXTD=
EXTT0=
EXTT1=
EXTT2=
EXTT3=
EXTT4=
EXTT5=
EXTT6=
EXTT7=
EXTT8=
EXTT9=
EXTT10=
EXTT11=
PLAYORDER=
